<svg width="25" height="36" viewBox="0 0 25 36" fill="none" xmlns="http://www.w3.org/2000/svg">
<path d="M18.125 0L17.0219 2.11968C16.7578 2.62894 16.2156 2.95043 15.6234 2.95043H9.37344C8.78125 2.95043 8.24063 2.62894 7.975 2.11968L6.875 0C3.00781 0.446169 0 3.62043 0 7.45719V28.4887C0 32.6304 3.50469 36 7.8125 36H17.1875C21.4953 36 25 32.6304 25 28.4887V7.45719C25 3.62043 21.9922 0.447672 18.125 0ZM14.0625 31.4932H10.9375C10.075 31.4932 9.375 30.8202 9.375 29.991C9.375 29.1617 10.075 28.4887 10.9375 28.4887H14.0625C14.925 28.4887 15.625 29.1617 15.625 29.991C15.625 30.8202 14.925 31.4932 14.0625 31.4932Z" fill="white"/>
</svg>
