<svg width="123" height="74" viewBox="0 0 123 74" fill="none" xmlns="http://www.w3.org/2000/svg">
<path d="M20.5522 9.10536L20.1721 1.87708H41.5234L41.0998 9.10536H35.2322V32.0841H26.4416V9.10536H20.5522ZM52.6707 26.0598C53.6667 26.0598 54.7233 25.9853 55.831 25.8364C56.9403 25.6874 58.0403 25.4873 59.1403 25.2344L60.0557 30.7452C58.8067 31.3549 57.3561 31.8312 55.7053 32.1803C54.0546 32.5294 52.2254 32.7078 50.2178 32.7078C42.8266 32.7078 39.131 28.7516 39.131 20.8469C39.131 18.7648 39.3684 16.9728 39.8447 15.4555C40.321 13.9459 41.0269 12.6955 41.9563 11.7149C42.8856 10.7344 44.0306 10.0114 45.399 9.54443C46.7673 9.07588 48.3436 8.83851 50.1294 8.83851C51.9136 8.83851 53.4371 9.0976 54.7031 9.6189C55.966 10.1464 57.0086 10.8616 57.8262 11.7832C58.6438 12.6986 59.2473 13.783 59.6259 15.0258C60.0045 16.2747 60.1906 17.6276 60.1906 19.0859C60.1906 19.5312 60.1612 19.9935 60.1007 20.4621C60.0417 20.9306 59.975 21.3775 59.8928 21.7933C59.8105 22.209 59.7205 22.5969 59.6321 22.9382C59.5421 23.2796 59.4599 23.548 59.387 23.7419H47.9185C47.979 24.136 48.1125 24.485 48.3126 24.7674C48.5143 25.0591 48.7967 25.2949 49.1613 25.4888C49.5243 25.675 49.9944 25.8224 50.5653 25.9201C51.1378 26.0179 51.8375 26.0613 52.6707 26.0613V26.0598ZM52.2021 18.1613C52.1866 17.2754 52.0098 16.6377 51.6669 16.2499C51.3256 15.8558 50.7903 15.6619 50.0611 15.6619C49.3474 15.6619 48.7982 15.8635 48.4026 16.2716C48.0085 16.6734 47.7929 17.3049 47.7634 18.1597H52.2021V18.1613ZM71.8266 32.4844C70.6072 32.7373 69.4389 32.7668 68.3172 32.5744C67.194 32.3805 66.1979 31.9864 65.3337 31.3922C64.4711 30.7964 63.7807 30.0238 63.2594 29.0727C62.7381 28.1201 62.479 27.0124 62.479 25.7479V1.36355L70.9128 0.448181V24.1856C70.9128 24.7209 71.0028 25.2049 71.1735 25.6362C71.3441 26.0675 71.5598 26.4461 71.8204 26.7735C72.0811 27.1008 72.3634 27.377 72.6753 27.6004C72.9871 27.8222 73.2928 27.9867 73.5906 28.0907L71.8282 32.486L71.8266 32.4844ZM88.1713 26.0598C89.1674 26.0598 90.2239 25.9853 91.3317 25.8364C92.441 25.6874 93.541 25.4873 94.6409 25.2344L95.5563 30.7452C94.3074 31.3549 92.8568 31.8312 91.206 32.1803C89.5552 32.5294 87.7261 32.7078 85.7169 32.7078C78.3257 32.7078 74.6301 28.7516 74.6301 20.8469C74.6301 18.7648 74.8675 16.9728 75.3438 15.4555C75.8201 13.9459 76.526 12.6955 77.4569 11.7149C78.3862 10.7344 79.5312 10.0114 80.8996 9.54443C82.2696 9.07588 83.8443 8.83851 85.63 8.83851C87.4142 8.83851 88.9377 9.0976 90.2037 9.6189C91.4666 10.1464 92.5092 10.8616 93.3268 11.7832C94.1445 12.6986 94.748 13.783 95.1265 15.0258C95.5051 16.2747 95.6913 17.6276 95.6913 19.0859C95.6913 19.5312 95.6618 19.9935 95.6013 20.4621C95.5423 20.9306 95.4756 21.3775 95.3934 21.7933C95.3112 22.209 95.2212 22.5969 95.1328 22.9382C95.0428 23.2796 94.9605 23.548 94.8876 23.7419H83.4207C83.4812 24.136 83.6147 24.485 83.8148 24.7674C84.0165 25.0591 84.2989 25.2949 84.6635 25.4888C85.0265 25.675 85.4966 25.8224 86.0691 25.9201C86.6416 26.0179 87.3413 26.0613 88.1744 26.0613L88.1713 26.0598ZM87.7028 18.1613C87.6888 17.2754 87.5104 16.6377 87.1675 16.2499C86.8262 15.8558 86.2909 15.6619 85.5618 15.6619C84.8481 15.6619 84.2973 15.8635 83.9032 16.2716C83.5092 16.6734 83.2935 17.3049 83.264 18.1597H87.7028V18.1613Z" fill="#1F478A"/>
<path d="M93.8434 49.962C93.8434 45.3495 94.8953 41.9114 96.9976 39.6401C99.0998 37.3781 102.155 36.247 106.161 36.247C110.199 36.247 113.254 37.3951 115.323 39.6851C117.392 41.9735 118.426 45.4193 118.426 50.0147C118.426 54.7219 117.384 58.2204 115.289 60.5275C113.195 62.8237 110.132 63.9733 106.111 63.9733C102.088 63.9733 99.0424 62.8237 96.965 60.5275C94.8876 58.2204 93.845 54.7048 93.845 49.9635L93.8434 49.962ZM108.814 50.0644C108.814 48.8372 108.764 47.8194 108.663 47.008C108.564 46.195 108.405 45.5481 108.187 45.0718C107.979 44.597 107.703 44.2604 107.369 44.0618C107.034 43.8616 106.643 43.7592 106.201 43.7592C105.751 43.7592 105.349 43.8539 105.016 44.0447C104.674 44.234 104.39 44.5707 104.164 45.0547C103.939 45.5388 103.773 46.1857 103.664 46.9909C103.556 47.7946 103.506 48.8217 103.506 50.0644C103.506 51.2994 103.556 52.328 103.664 53.1487C103.773 53.9694 103.94 54.6257 104.156 55.1175C104.373 55.6093 104.64 55.9553 104.975 56.1539C105.309 56.354 105.709 56.4564 106.176 56.4564C106.618 56.4564 107.009 56.354 107.344 56.1539C107.679 55.9553 107.954 55.6109 108.162 55.1175C108.379 54.6257 108.545 53.9679 108.654 53.1487C108.762 52.328 108.812 51.3009 108.812 50.0644H108.814Z" fill="#1F478A"/>
<path fill-rule="evenodd" clip-rule="evenodd" d="M108.685 3.12259C110.26 4.81214 112.371 7.91352 113.946 9.60462C116.206 9.18883 118.467 8.77458 120.724 8.36345C121.914 8.14779 122.488 9.25709 121.908 10.3866C120.92 12.315 119.93 14.2451 118.94 16.1735C120.052 18.3564 121.484 20.7441 122.592 22.9209C123.084 23.889 122.555 24.3808 121.554 24.3606C119.125 24.3125 116.72 24.117 114.303 24.0177C111.066 32.9433 107.832 39.4657 104.48 44.6507C99.3543 52.5802 93.4618 58.6387 87.3196 64.1557C75.5579 74.7197 51.4528 78.2353 45.7698 64.9144C45.2578 63.7135 46.3236 62.4491 47.1087 64.0564C47.9232 65.7227 49.0728 66.9794 50.4816 67.8327C59.8602 73.5266 75.5502 62.9983 82.3301 56.9073C87.2063 52.5275 91.9011 47.2634 96.0264 40.8418C99.677 35.1604 102.881 28.5697 105.371 20.8853L98.4312 17.424C97.3343 16.8763 97.5841 15.4257 98.5584 14.9339C100.56 13.9255 103.818 12.9465 105.822 11.9334C106.167 9.70081 106.749 5.87179 107.085 3.64389C107.223 2.73318 108.016 2.40271 108.688 3.12259H108.685Z" fill="#FDCB14"/>
<path d="M9.15527e-05 28.2315H14.6444C16.0454 28.2315 17.3889 28.396 18.6673 28.7311C19.9442 29.0677 21.0628 29.5937 22.0294 30.3012C22.9975 31.0086 23.7654 31.9224 24.3317 33.0457C24.8996 34.1674 25.1835 35.5032 25.1835 37.0562C25.1835 38.8513 24.8422 40.3872 24.1487 41.6641C23.4567 42.941 22.2559 43.8889 20.5524 44.511V44.8741C21.3545 45.1844 22.0976 45.5552 22.7725 45.9958C23.4489 46.4364 24.0245 46.9794 24.5086 47.6171C24.9927 48.2547 25.3666 49.0056 25.635 49.8776C25.9018 50.7479 26.0352 51.775 26.0352 52.9495C26.0352 54.5025 25.818 55.9081 25.3836 57.1772C24.9508 58.4448 24.2169 59.5323 23.1821 60.4384C22.1473 61.3444 20.7789 62.0426 19.0676 62.5344C17.3579 63.0262 15.2215 63.276 12.6678 63.276H9.15527e-05V28.2331L9.15527e-05 28.2315ZM9.46248 48.4176V55.8709H12.3668C13.5692 55.8709 14.5032 55.5963 15.1719 55.0424C15.839 54.4916 16.1726 53.5499 16.1726 52.2218C16.1726 51.0303 15.8716 50.0994 15.2712 49.4261C14.6708 48.7543 13.7197 48.4161 12.4165 48.4161H9.46248V48.4176ZM9.46248 35.0642V41.585H12.3668C14.5699 41.585 15.6714 40.4555 15.6714 38.195C15.6714 37.0718 15.3627 36.2697 14.7452 35.7871C14.1277 35.3046 13.2682 35.0626 12.1667 35.0626H9.46248V35.0642Z" fill="#1F478A"/>
<path d="M29.8067 63.2452V53.803L27.7045 53.4135V46.2783H39.2706V63.2452H29.8083H29.8067ZM28.204 39.5931C28.204 38.6948 28.3297 37.9361 28.5702 37.3217C28.8122 36.7089 29.1628 36.2155 29.6298 35.8354C30.0984 35.4553 30.6817 35.1792 31.383 35.0147C32.0843 34.8502 32.8848 34.7727 33.7862 34.7727C34.6876 34.7727 35.4959 34.8518 36.2143 35.0147C36.9326 35.1792 37.533 35.4538 38.0171 35.8354C38.5011 36.2155 38.8781 36.7089 39.1357 37.3217C39.3932 37.9346 39.5189 38.6948 39.5189 39.5931C39.5189 40.4572 39.3932 41.1818 39.1434 41.7698C38.8921 42.3578 38.5259 42.8217 38.0403 43.177C37.5563 43.5307 36.9559 43.782 36.2375 43.9294C35.5208 44.0768 34.7031 44.1544 33.7847 44.1544C32.8833 44.1544 32.0827 44.0753 31.3814 43.9294C30.6802 43.782 30.0968 43.5323 29.6283 43.177C29.1613 42.8232 28.8107 42.3562 28.5686 41.7698C28.3266 41.1818 28.2025 40.4572 28.2025 39.5931H28.204Z" fill="#1F478A"/>
<path d="M51.9788 63.2451H42.5148V36.9695H50.0255L50.5002 39.6737C50.9021 39.2067 51.3598 38.7661 51.8686 38.3519C52.3791 37.9361 52.936 37.5653 53.5535 37.255C54.1726 36.9447 54.8397 36.7011 55.5487 36.5211C56.2577 36.3396 57.0086 36.245 57.8107 36.245C59.446 36.245 60.7973 36.4854 61.8663 36.9695C62.9337 37.4536 63.7854 38.1874 64.4122 39.171C65.0375 40.1562 65.4719 41.3912 65.7217 42.8852C65.973 44.3793 66.0971 46.1495 66.0971 48.1881V63.2436H56.6347V47.2216C56.6347 46.0564 56.5091 45.1923 56.25 44.6384C55.9924 44.0861 55.482 43.8099 54.7311 43.8099C54.1462 43.8099 53.6544 43.9061 53.2463 44.0954C52.8383 44.2847 52.4132 44.5453 51.9788 44.8727V63.2436V63.2451Z" fill="#1F478A"/>
<path d="M67.6144 66.2332C67.6144 65.7321 67.6982 65.2496 67.8658 64.7826C68.0318 64.3156 68.2661 63.875 68.5593 63.4685C68.851 63.0636 69.1845 62.6819 69.5677 62.3282C69.9525 61.9745 70.3698 61.6549 70.8198 61.3787C70.1433 60.9288 69.6438 60.3594 69.3257 59.6597C68.9999 58.96 68.8417 58.1656 68.8417 57.2673C68.8417 56.8345 68.9084 56.3939 69.0418 55.9362C69.1752 55.4785 69.3583 55.0456 69.6019 54.6329C69.8346 54.2171 70.1278 53.8293 70.4691 53.4755C70.8043 53.1296 71.1875 52.8193 71.6219 52.5602C70.57 51.9039 69.7368 50.9792 69.1178 49.797C68.5003 48.6039 68.1916 47.1533 68.1916 45.4436C68.1916 44.0349 68.4677 42.7735 69.0185 41.6332C69.5677 40.5022 70.345 39.5356 71.3302 38.7413C72.3154 37.9376 73.5007 37.3232 74.8769 36.8919C76.253 36.4606 77.7719 36.245 79.432 36.245C80.1006 36.245 80.7755 36.3055 81.452 36.4172C82.1269 36.5289 82.9445 36.6933 83.8971 36.9183L92.9763 36.8919V42.8263L90.272 42.5408C90.4055 42.8868 90.5141 43.3445 90.5963 43.9061C90.6801 44.4662 90.722 45.0542 90.722 45.6593C90.722 47.0757 90.4551 48.3278 89.9214 49.4247C89.3862 50.5122 88.6353 51.4292 87.6594 52.163C86.682 52.8968 85.523 53.4492 84.1717 53.82C82.8281 54.1923 81.3263 54.3816 79.674 54.3816C79.2473 54.3816 78.8548 54.3645 78.5135 54.3382C78.1722 54.304 77.8557 54.2683 77.5547 54.2249C77.4213 54.363 77.3127 54.5181 77.2289 54.6919C77.1466 54.8641 77.1048 55.0456 77.1048 55.2365C77.1048 55.6678 77.2553 56.0308 77.5547 56.324C77.8557 56.6173 78.3056 56.7631 78.906 56.7631H82.4356C83.8878 56.7631 85.2391 56.8764 86.4911 57.1013C87.7432 57.3247 88.8369 57.7483 89.7632 58.3704C90.6894 58.9926 91.4155 59.8645 91.9399 60.9784C92.4658 62.0939 92.7249 63.5353 92.7249 65.3055C92.7249 66.6196 92.4503 67.8018 91.9073 68.8552C91.3643 69.9087 90.556 70.8085 89.4792 71.5408C88.4025 72.2747 87.0512 72.8378 85.4315 73.2257C83.8118 73.6151 81.919 73.8137 79.7407 73.8137C78.9076 73.8137 78.031 73.7889 77.1125 73.7439C76.194 73.7005 75.2849 73.5981 74.3742 73.4336C73.4728 73.2691 72.6148 73.0287 71.7956 72.7091C70.978 72.3895 70.2612 71.9488 69.6438 71.3872C69.0263 70.8271 68.5345 70.1259 68.1668 69.2803C67.8006 68.4425 67.616 67.4232 67.616 66.2301L67.6144 66.2332ZM75.3997 65.4296C75.3997 65.7057 75.4416 65.9912 75.5161 66.2674C75.5921 66.5435 75.7674 66.7949 76.0513 67.0105C76.3337 67.2277 76.7603 67.4077 77.3359 67.5458C77.9038 67.6839 78.6795 67.7521 79.6647 67.7521C80.6405 67.7521 81.424 67.6839 82.0167 67.5535C82.6094 67.4232 83.0686 67.251 83.3929 67.0338C83.7187 66.8181 83.9359 66.5668 84.0445 66.2736C84.1515 65.9897 84.212 65.6778 84.212 65.3505C84.212 64.6926 84.0119 64.2443 83.6116 64.0116C83.2113 63.7773 82.6776 63.6578 82.0012 63.6578H76.6269C76.2608 63.8642 75.9675 64.1077 75.7441 64.3917C75.5176 64.6678 75.4012 65.0138 75.4012 65.428L75.3997 65.4296ZM77.052 45.4172C77.052 47.1797 77.8867 48.0609 79.5468 48.0609C81.2565 48.0609 82.1082 47.189 82.1082 45.4452C82.1082 44.5639 81.9003 43.8906 81.483 43.4236C81.0734 42.9566 80.4404 42.7239 79.5964 42.7239C77.9022 42.7239 77.052 43.6222 77.052 45.4188V45.4172Z" fill="#1F478A"/>
</svg>
