<svg width="36" height="29" viewBox="0 0 36 29" fill="none" xmlns="http://www.w3.org/2000/svg">
<path fill-rule="evenodd" clip-rule="evenodd" d="M16.2 0C15.7591 5.85629e-05 15.3336 0.163045 15.0041 0.458046C14.6747 0.753047 14.4642 1.15954 14.4126 1.60044L14.4 1.8125C14.3995 2.27447 14.2238 2.71881 13.9089 3.05473C13.5939 3.39065 13.1635 3.5928 12.7055 3.61987C12.2475 3.64695 11.7965 3.4969 11.4447 3.2004C11.0929 2.90389 10.8668 2.4833 10.8126 2.02456L10.8 1.8125C10.8 1.3318 10.6104 0.870779 10.2728 0.530869C9.93523 0.19096 9.47739 0 9 0H5.4C3.96783 0 2.59432 0.572878 1.58162 1.59261C0.568928 2.61234 0 3.99539 0 5.4375V23.5625C0 25.0046 0.568928 26.3877 1.58162 27.4074C2.59432 28.4271 3.96783 29 5.4 29H9C9.44088 28.9999 9.86641 28.837 10.1959 28.542C10.5253 28.247 10.7358 27.8405 10.7874 27.3996L10.8 27.1875C10.8005 26.7255 10.9762 26.2812 11.2911 25.9453C11.6061 25.6094 12.0365 25.4072 12.4945 25.3801C12.9525 25.3531 13.4035 25.5031 13.7553 25.7996C14.1071 26.0961 14.3332 26.5167 14.3874 26.9754L14.4 27.1875C14.4 27.6682 14.5896 28.1292 14.9272 28.4691C15.2648 28.809 15.7226 29 16.2 29H30.6C32.0322 29 33.4057 28.4271 34.4184 27.4074C35.4311 26.3877 36 25.0046 36 23.5625V5.4375C36 3.99539 35.4311 2.61234 34.4184 1.59261C33.4057 0.572878 32.0322 0 30.6 0H16.2ZM12.6 16.3125C13.0774 16.3125 13.5352 16.5035 13.8728 16.8434C14.2104 17.1833 14.4 17.6443 14.4 18.125V19.9375C14.4 20.4182 14.2104 20.8792 13.8728 21.2191C13.5352 21.559 13.0774 21.75 12.6 21.75C12.1226 21.75 11.6648 21.559 11.3272 21.2191C10.9896 20.8792 10.8 20.4182 10.8 19.9375V18.125C10.8 17.6443 10.9896 17.1833 11.3272 16.8434C11.6648 16.5035 12.1226 16.3125 12.6 16.3125ZM12.6 7.25C13.0409 7.25006 13.4664 7.41305 13.7959 7.70805C14.1253 8.00305 14.3358 8.40955 14.3874 8.85044L14.4 9.0625V10.875C14.3995 11.337 14.2238 11.7813 13.9089 12.1172C13.5939 12.4532 13.1635 12.6553 12.7055 12.6824C12.2475 12.7094 11.7965 12.5594 11.4447 12.2629C11.0929 11.9664 10.8668 11.5458 10.8126 11.0871L10.8 10.875V9.0625C10.8 8.5818 10.9896 8.12078 11.3272 7.78087C11.6648 7.44096 12.1226 7.25 12.6 7.25Z" fill="white"/>
</svg>
