<svg width="36" height="29" viewBox="0 0 36 29" fill="none" xmlns="http://www.w3.org/2000/svg">
<path d="M18.1159 0H18.3161C20.1658 0.0077409 29.5376 0.0851504 32.0645 0.864401C32.8284 1.10222 33.5245 1.56578 34.0832 2.20876C34.642 2.85173 35.0438 3.6516 35.2485 4.52843C35.4757 5.50894 35.6355 6.80683 35.7435 8.14601L35.766 8.41436L35.8155 9.08524L35.8335 9.35359C35.9798 11.712 35.9977 13.9207 36 14.4032V14.5968C35.9977 15.0973 35.9775 17.4557 35.8155 19.9122L35.7975 20.1831L35.7772 20.4515C35.6647 21.9274 35.4982 23.393 35.2485 24.4716C35.0444 25.3488 34.6428 26.149 34.084 26.7921C33.5252 27.4352 32.8287 27.8985 32.0645 28.1356C29.4543 28.9407 19.5335 28.9974 18.1586 29H17.8391C17.1438 29 14.2681 28.9845 11.253 28.8658L10.8704 28.8503L10.6747 28.84L10.2899 28.822L9.90512 28.8039C7.40746 28.6775 5.02906 28.4736 3.93325 28.133C3.1693 27.8961 2.47305 27.4332 1.91425 26.7906C1.35545 26.148 0.953715 25.3483 0.749297 24.4716C0.499531 23.3956 0.333021 21.9274 0.220514 20.4515L0.202513 20.1805L0.184512 19.9122C0.0734617 18.1638 0.0119254 16.4117 0 14.6587L0 14.3413C0.00450028 13.7865 0.0225014 11.8694 0.144009 9.75354L0.15976 9.48777L0.16651 9.35359L0.184512 9.08524L0.234015 8.41436L0.256516 8.14601C0.364523 6.80683 0.524283 5.50636 0.751547 4.52843C0.95562 3.65125 1.3572 2.851 1.91602 2.20792C2.47485 1.56483 3.17128 1.10151 3.9355 0.864401C5.03131 0.528962 7.40971 0.322537 9.90737 0.193522L10.2899 0.17546L10.6769 0.159979L10.8704 0.152238L11.2552 0.134176C13.3967 0.0551532 15.539 0.0112833 17.6816 0.00258042L18.1159 0ZM14.4009 8.28277V20.7147L23.7547 14.5013L14.4009 8.28277Z" fill="white"/>
</svg>
